<svg width="77" height="243" viewBox="0 0 77 243" fill="none" xmlns="http://www.w3.org/2000/svg">
<g filter="url(#filter0_iif_63_1080)">
<rect x="10" y="41" width="57" height="161" rx="28.5" fill="#F8F8F8"/>
<rect x="11.5" y="42.5" width="54" height="158" rx="27" stroke="white" stroke-width="3"/>
</g>
<g filter="url(#filter1_iif_63_1080)">
<rect x="34" y="77" width="9" height="90" rx="4.5" fill="#F5F5F5"/>
<rect x="35.5" y="78.5" width="6" height="87" rx="3" stroke="white" stroke-width="3"/>
</g>
<g filter="url(#filter2_ddf_63_1080)">
<mask id="mask0_63_1080" style="mask-type:alpha" maskUnits="userSpaceOnUse" x="14" y="45" width="49" height="84">
<rect x="15.5" y="46.5" width="46" height="81" rx="23" fill="#45A6FF" stroke="white" stroke-width="3"/>
</mask>
<g mask="url(#mask0_63_1080)">
<g filter="url(#filter3_i_63_1080)">
<rect x="14" y="45" width="49" height="84" rx="24.5" fill="#45A6FF"/>
</g>
<rect x="15.5" y="46.5" width="46" height="81" rx="23" stroke="white" stroke-width="3"/>
<g opacity="0.3" filter="url(#filter4_f_63_1080)">
<rect x="14" y="45" width="49" height="1" fill="white"/>
</g>
<g opacity="0.5" filter="url(#filter5_f_63_1080)">
<rect x="14" y="48" width="49" height="1" fill="white"/>
</g>
<g opacity="0.5" filter="url(#filter6_f_63_1080)">
<rect x="14" y="51" width="49" height="1" fill="white"/>
</g>
<g opacity="0.5" filter="url(#filter7_f_63_1080)">
<rect x="14" y="54" width="49" height="1" fill="white"/>
</g>
<g opacity="0.5" filter="url(#filter8_f_63_1080)">
<rect x="14" y="57" width="49" height="1" fill="white"/>
</g>
<g opacity="0.5" filter="url(#filter9_f_63_1080)">
<rect x="14" y="60" width="49" height="1" fill="white"/>
</g>
<g opacity="0.5" filter="url(#filter10_f_63_1080)">
<rect x="14" y="63" width="49" height="1" fill="white"/>
</g>
<g opacity="0.5" filter="url(#filter11_f_63_1080)">
<rect x="14" y="66" width="49" height="1" fill="white"/>
</g>
<g opacity="0.5" filter="url(#filter12_f_63_1080)">
<rect x="14" y="69" width="49" height="1" fill="white"/>
</g>
<g opacity="0.5" filter="url(#filter13_f_63_1080)">
<rect x="14" y="72" width="49" height="1" fill="white"/>
</g>
<g opacity="0.5" filter="url(#filter14_f_63_1080)">
<rect x="14" y="75" width="49" height="1" fill="white"/>
</g>
<g opacity="0.5" filter="url(#filter15_f_63_1080)">
<rect x="14" y="78" width="49" height="1" fill="white"/>
</g>
<g opacity="0.5" filter="url(#filter16_f_63_1080)">
<rect x="14" y="81" width="49" height="1" fill="white"/>
</g>
<g opacity="0.5" filter="url(#filter17_f_63_1080)">
<rect x="14" y="84" width="49" height="1" fill="white"/>
</g>
<g opacity="0.5" filter="url(#filter18_f_63_1080)">
<rect x="14" y="87" width="49" height="1" fill="white"/>
</g>
<g opacity="0.5" filter="url(#filter19_f_63_1080)">
<rect x="14" y="90" width="49" height="1" fill="white"/>
</g>
<g opacity="0.5" filter="url(#filter20_f_63_1080)">
<rect x="14" y="111" width="49" height="1" fill="white"/>
</g>
<g opacity="0.5" filter="url(#filter21_f_63_1080)">
<rect x="14" y="93" width="49" height="1" fill="white"/>
</g>
<g opacity="0.5" filter="url(#filter22_f_63_1080)">
<rect x="14" y="114" width="49" height="1" fill="white"/>
</g>
<g opacity="0.5" filter="url(#filter23_f_63_1080)">
<rect x="14" y="96" width="49" height="1" fill="white"/>
</g>
<g opacity="0.5" filter="url(#filter24_f_63_1080)">
<rect x="14" y="117" width="49" height="1" fill="white"/>
</g>
<g opacity="0.5" filter="url(#filter25_f_63_1080)">
<rect x="14" y="99" width="49" height="1" fill="white"/>
</g>
<g opacity="0.5" filter="url(#filter26_f_63_1080)">
<rect x="14" y="120" width="49" height="1" fill="white"/>
</g>
<g opacity="0.5" filter="url(#filter27_f_63_1080)">
<rect x="14" y="102" width="49" height="1" fill="white"/>
</g>
<g opacity="0.5" filter="url(#filter28_f_63_1080)">
<rect x="14" y="123" width="49" height="1" fill="white"/>
</g>
<g opacity="0.5" filter="url(#filter29_f_63_1080)">
<rect x="14" y="105" width="49" height="1" fill="white"/>
</g>
<g opacity="0.3" filter="url(#filter30_f_63_1080)">
<rect x="14" y="126" width="49" height="1" fill="white"/>
</g>
<g opacity="0.5" filter="url(#filter31_f_63_1080)">
<rect x="14" y="108" width="49" height="1" fill="white"/>
</g>
<g opacity="0.3" filter="url(#filter32_f_63_1080)">
<rect x="14" y="129" width="49" height="1" fill="white"/>
</g>
</g>
</g>
<path opacity="0.5" d="M24.5589 237.176C23.0042 237.176 21.6035 236.839 20.3569 236.164C19.1102 235.475 18.1275 234.529 17.4089 233.326C16.7049 232.123 16.3529 230.781 16.3529 229.3C16.3529 227.819 16.7049 226.477 17.4089 225.274C18.1275 224.071 19.1102 223.133 20.3569 222.458C21.6035 221.769 23.0042 221.424 24.5589 221.424C26.0989 221.424 27.4922 221.769 28.7389 222.458C29.9855 223.133 30.9609 224.071 31.6649 225.274C32.3689 226.462 32.7209 227.804 32.7209 229.3C32.7209 230.796 32.3689 232.145 31.6649 233.348C30.9609 234.536 29.9855 235.475 28.7389 236.164C27.4922 236.839 26.0989 237.176 24.5589 237.176ZM24.5589 235.218C25.6882 235.218 26.7002 234.961 27.5949 234.448C28.5042 233.935 29.2155 233.231 29.7289 232.336C30.2569 231.427 30.5209 230.415 30.5209 229.3C30.5209 228.185 30.2569 227.181 29.7289 226.286C29.2155 225.377 28.5042 224.665 27.5949 224.152C26.7002 223.639 25.6882 223.382 24.5589 223.382C23.4295 223.382 22.4029 223.639 21.4789 224.152C20.5695 224.665 19.8509 225.377 19.3229 226.286C18.8095 227.181 18.5529 228.185 18.5529 229.3C18.5529 230.415 18.8095 231.427 19.3229 232.336C19.8509 233.231 20.5695 233.935 21.4789 234.448C22.4029 234.961 23.4295 235.218 24.5589 235.218ZM38.2834 223.514V228.882H46.0054V230.774H38.2834V237H36.0834V221.6H46.9514V223.514H38.2834ZM52.2483 223.514V228.882H59.9703V230.774H52.2483V237H50.0483V221.6H60.9163V223.514H52.2483Z" fill="#3B4252"/>
<path d="M29.597 21.176C28.0423 21.176 26.6416 20.8387 25.395 20.164C24.1483 19.4747 23.1656 18.5287 22.447 17.326C21.743 16.1233 21.391 14.7813 21.391 13.3C21.391 11.8187 21.743 10.4767 22.447 9.274C23.1656 8.07133 24.1483 7.13267 25.395 6.458C26.6416 5.76867 28.0423 5.424 29.597 5.424C31.137 5.424 32.5303 5.76867 33.777 6.458C35.0236 7.13267 35.999 8.07133 36.703 9.274C37.407 10.462 37.759 11.804 37.759 13.3C37.759 14.796 37.407 16.1453 36.703 17.348C35.999 18.536 35.0236 19.4747 33.777 20.164C32.5303 20.8387 31.137 21.176 29.597 21.176ZM29.597 19.218C30.7263 19.218 31.7383 18.9613 32.633 18.448C33.5423 17.9347 34.2536 17.2307 34.767 16.336C35.295 15.4267 35.559 14.4147 35.559 13.3C35.559 12.1853 35.295 11.1807 34.767 10.286C34.2536 9.37667 33.5423 8.66533 32.633 8.152C31.7383 7.63867 30.7263 7.382 29.597 7.382C28.4676 7.382 27.441 7.63867 26.517 8.152C25.6076 8.66533 24.889 9.37667 24.361 10.286C23.8476 11.1807 23.591 12.1853 23.591 13.3C23.591 14.4147 23.8476 15.4267 24.361 16.336C24.889 17.2307 25.6076 17.9347 26.517 18.448C27.441 18.9613 28.4676 19.218 29.597 19.218ZM54.3655 5.6V21H52.5615L43.3215 9.516V21H41.1215V5.6H42.9255L52.1655 17.084V5.6H54.3655Z" fill="#45A6FF"/>
<defs>
<filter id="filter0_iif_63_1080" x="5" y="36" width="67" height="171" filterUnits="userSpaceOnUse" color-interpolation-filters="sRGB">
<feFlood flood-opacity="0" result="BackgroundImageFix"/>
<feBlend mode="normal" in="SourceGraphic" in2="BackgroundImageFix" result="shape"/>
<feColorMatrix in="SourceAlpha" type="matrix" values="0 0 0 0 0 0 0 0 0 0 0 0 0 0 0 0 0 0 127 0" result="hardAlpha"/>
<feOffset dx="5" dy="5"/>
<feGaussianBlur stdDeviation="4.5"/>
<feComposite in2="hardAlpha" operator="arithmetic" k2="-1" k3="1"/>
<feColorMatrix type="matrix" values="0 0 0 0 0 0 0 0 0 0 0 0 0 0 0 0 0 0 0.15 0"/>
<feBlend mode="normal" in2="shape" result="effect1_innerShadow_63_1080"/>
<feColorMatrix in="SourceAlpha" type="matrix" values="0 0 0 0 0 0 0 0 0 0 0 0 0 0 0 0 0 0 127 0" result="hardAlpha"/>
<feOffset dx="-5" dy="-5"/>
<feGaussianBlur stdDeviation="4.5"/>
<feComposite in2="hardAlpha" operator="arithmetic" k2="-1" k3="1"/>
<feColorMatrix type="matrix" values="0 0 0 0 1 0 0 0 0 1 0 0 0 0 1 0 0 0 1 0"/>
<feBlend mode="normal" in2="effect1_innerShadow_63_1080" result="effect2_innerShadow_63_1080"/>
<feGaussianBlur stdDeviation="0.5" result="effect3_foregroundBlur_63_1080"/>
</filter>
<filter id="filter1_iif_63_1080" x="29" y="72" width="19" height="100" filterUnits="userSpaceOnUse" color-interpolation-filters="sRGB">
<feFlood flood-opacity="0" result="BackgroundImageFix"/>
<feBlend mode="normal" in="SourceGraphic" in2="BackgroundImageFix" result="shape"/>
<feColorMatrix in="SourceAlpha" type="matrix" values="0 0 0 0 0 0 0 0 0 0 0 0 0 0 0 0 0 0 127 0" result="hardAlpha"/>
<feOffset dx="5" dy="5"/>
<feGaussianBlur stdDeviation="4.5"/>
<feComposite in2="hardAlpha" operator="arithmetic" k2="-1" k3="1"/>
<feColorMatrix type="matrix" values="0 0 0 0 0 0 0 0 0 0 0 0 0 0 0 0 0 0 0.15 0"/>
<feBlend mode="normal" in2="shape" result="effect1_innerShadow_63_1080"/>
<feColorMatrix in="SourceAlpha" type="matrix" values="0 0 0 0 0 0 0 0 0 0 0 0 0 0 0 0 0 0 127 0" result="hardAlpha"/>
<feOffset dx="-5" dy="-5"/>
<feGaussianBlur stdDeviation="4.5"/>
<feComposite in2="hardAlpha" operator="arithmetic" k2="-1" k3="1"/>
<feColorMatrix type="matrix" values="0 0 0 0 1 0 0 0 0 1 0 0 0 0 1 0 0 0 1 0"/>
<feBlend mode="normal" in2="effect1_innerShadow_63_1080" result="effect2_innerShadow_63_1080"/>
<feGaussianBlur stdDeviation="0.5" result="effect3_foregroundBlur_63_1080"/>
</filter>
<filter id="filter2_ddf_63_1080" x="0" y="31" width="77" height="112" filterUnits="userSpaceOnUse" color-interpolation-filters="sRGB">
<feFlood flood-opacity="0" result="BackgroundImageFix"/>
<feColorMatrix in="SourceAlpha" type="matrix" values="0 0 0 0 0 0 0 0 0 0 0 0 0 0 0 0 0 0 127 0" result="hardAlpha"/>
<feOffset dx="5" dy="5"/>
<feGaussianBlur stdDeviation="4.5"/>
<feColorMatrix type="matrix" values="0 0 0 0 0 0 0 0 0 0 0 0 0 0 0 0 0 0 0.15 0"/>
<feBlend mode="normal" in2="BackgroundImageFix" result="effect1_dropShadow_63_1080"/>
<feColorMatrix in="SourceAlpha" type="matrix" values="0 0 0 0 0 0 0 0 0 0 0 0 0 0 0 0 0 0 127 0" result="hardAlpha"/>
<feOffset dx="-5" dy="-5"/>
<feGaussianBlur stdDeviation="4.5"/>
<feColorMatrix type="matrix" values="0 0 0 0 0.972549 0 0 0 0 0.972549 0 0 0 0 0.972549 0 0 0 1 0"/>
<feBlend mode="normal" in2="effect1_dropShadow_63_1080" result="effect2_dropShadow_63_1080"/>
<feBlend mode="normal" in="SourceGraphic" in2="effect2_dropShadow_63_1080" result="shape"/>
<feGaussianBlur stdDeviation="0.25" result="effect3_foregroundBlur_63_1080"/>
</filter>
<filter id="filter3_i_63_1080" x="14" y="45" width="49" height="84" filterUnits="userSpaceOnUse" color-interpolation-filters="sRGB">
<feFlood flood-opacity="0" result="BackgroundImageFix"/>
<feBlend mode="normal" in="SourceGraphic" in2="BackgroundImageFix" result="shape"/>
<feColorMatrix in="SourceAlpha" type="matrix" values="0 0 0 0 0 0 0 0 0 0 0 0 0 0 0 0 0 0 127 0" result="hardAlpha"/>
<feOffset/>
<feGaussianBlur stdDeviation="7.5"/>
<feComposite in2="hardAlpha" operator="arithmetic" k2="-1" k3="1"/>
<feColorMatrix type="matrix" values="0 0 0 0 0.231373 0 0 0 0 0.258824 0 0 0 0 0.321569 0 0 0 0.25 0"/>
<feBlend mode="normal" in2="shape" result="effect1_innerShadow_63_1080"/>
</filter>
<filter id="filter4_f_63_1080" x="12" y="43" width="53" height="5" filterUnits="userSpaceOnUse" color-interpolation-filters="sRGB">
<feFlood flood-opacity="0" result="BackgroundImageFix"/>
<feBlend mode="normal" in="SourceGraphic" in2="BackgroundImageFix" result="shape"/>
<feGaussianBlur stdDeviation="1" result="effect1_foregroundBlur_63_1080"/>
</filter>
<filter id="filter5_f_63_1080" x="12" y="46" width="53" height="5" filterUnits="userSpaceOnUse" color-interpolation-filters="sRGB">
<feFlood flood-opacity="0" result="BackgroundImageFix"/>
<feBlend mode="normal" in="SourceGraphic" in2="BackgroundImageFix" result="shape"/>
<feGaussianBlur stdDeviation="1" result="effect1_foregroundBlur_63_1080"/>
</filter>
<filter id="filter6_f_63_1080" x="12" y="49" width="53" height="5" filterUnits="userSpaceOnUse" color-interpolation-filters="sRGB">
<feFlood flood-opacity="0" result="BackgroundImageFix"/>
<feBlend mode="normal" in="SourceGraphic" in2="BackgroundImageFix" result="shape"/>
<feGaussianBlur stdDeviation="1" result="effect1_foregroundBlur_63_1080"/>
</filter>
<filter id="filter7_f_63_1080" x="12" y="52" width="53" height="5" filterUnits="userSpaceOnUse" color-interpolation-filters="sRGB">
<feFlood flood-opacity="0" result="BackgroundImageFix"/>
<feBlend mode="normal" in="SourceGraphic" in2="BackgroundImageFix" result="shape"/>
<feGaussianBlur stdDeviation="1" result="effect1_foregroundBlur_63_1080"/>
</filter>
<filter id="filter8_f_63_1080" x="12" y="55" width="53" height="5" filterUnits="userSpaceOnUse" color-interpolation-filters="sRGB">
<feFlood flood-opacity="0" result="BackgroundImageFix"/>
<feBlend mode="normal" in="SourceGraphic" in2="BackgroundImageFix" result="shape"/>
<feGaussianBlur stdDeviation="1" result="effect1_foregroundBlur_63_1080"/>
</filter>
<filter id="filter9_f_63_1080" x="12" y="58" width="53" height="5" filterUnits="userSpaceOnUse" color-interpolation-filters="sRGB">
<feFlood flood-opacity="0" result="BackgroundImageFix"/>
<feBlend mode="normal" in="SourceGraphic" in2="BackgroundImageFix" result="shape"/>
<feGaussianBlur stdDeviation="1" result="effect1_foregroundBlur_63_1080"/>
</filter>
<filter id="filter10_f_63_1080" x="12" y="61" width="53" height="5" filterUnits="userSpaceOnUse" color-interpolation-filters="sRGB">
<feFlood flood-opacity="0" result="BackgroundImageFix"/>
<feBlend mode="normal" in="SourceGraphic" in2="BackgroundImageFix" result="shape"/>
<feGaussianBlur stdDeviation="1" result="effect1_foregroundBlur_63_1080"/>
</filter>
<filter id="filter11_f_63_1080" x="12" y="64" width="53" height="5" filterUnits="userSpaceOnUse" color-interpolation-filters="sRGB">
<feFlood flood-opacity="0" result="BackgroundImageFix"/>
<feBlend mode="normal" in="SourceGraphic" in2="BackgroundImageFix" result="shape"/>
<feGaussianBlur stdDeviation="1" result="effect1_foregroundBlur_63_1080"/>
</filter>
<filter id="filter12_f_63_1080" x="12" y="67" width="53" height="5" filterUnits="userSpaceOnUse" color-interpolation-filters="sRGB">
<feFlood flood-opacity="0" result="BackgroundImageFix"/>
<feBlend mode="normal" in="SourceGraphic" in2="BackgroundImageFix" result="shape"/>
<feGaussianBlur stdDeviation="1" result="effect1_foregroundBlur_63_1080"/>
</filter>
<filter id="filter13_f_63_1080" x="12" y="70" width="53" height="5" filterUnits="userSpaceOnUse" color-interpolation-filters="sRGB">
<feFlood flood-opacity="0" result="BackgroundImageFix"/>
<feBlend mode="normal" in="SourceGraphic" in2="BackgroundImageFix" result="shape"/>
<feGaussianBlur stdDeviation="1" result="effect1_foregroundBlur_63_1080"/>
</filter>
<filter id="filter14_f_63_1080" x="12" y="73" width="53" height="5" filterUnits="userSpaceOnUse" color-interpolation-filters="sRGB">
<feFlood flood-opacity="0" result="BackgroundImageFix"/>
<feBlend mode="normal" in="SourceGraphic" in2="BackgroundImageFix" result="shape"/>
<feGaussianBlur stdDeviation="1" result="effect1_foregroundBlur_63_1080"/>
</filter>
<filter id="filter15_f_63_1080" x="12" y="76" width="53" height="5" filterUnits="userSpaceOnUse" color-interpolation-filters="sRGB">
<feFlood flood-opacity="0" result="BackgroundImageFix"/>
<feBlend mode="normal" in="SourceGraphic" in2="BackgroundImageFix" result="shape"/>
<feGaussianBlur stdDeviation="1" result="effect1_foregroundBlur_63_1080"/>
</filter>
<filter id="filter16_f_63_1080" x="12" y="79" width="53" height="5" filterUnits="userSpaceOnUse" color-interpolation-filters="sRGB">
<feFlood flood-opacity="0" result="BackgroundImageFix"/>
<feBlend mode="normal" in="SourceGraphic" in2="BackgroundImageFix" result="shape"/>
<feGaussianBlur stdDeviation="1" result="effect1_foregroundBlur_63_1080"/>
</filter>
<filter id="filter17_f_63_1080" x="12" y="82" width="53" height="5" filterUnits="userSpaceOnUse" color-interpolation-filters="sRGB">
<feFlood flood-opacity="0" result="BackgroundImageFix"/>
<feBlend mode="normal" in="SourceGraphic" in2="BackgroundImageFix" result="shape"/>
<feGaussianBlur stdDeviation="1" result="effect1_foregroundBlur_63_1080"/>
</filter>
<filter id="filter18_f_63_1080" x="12" y="85" width="53" height="5" filterUnits="userSpaceOnUse" color-interpolation-filters="sRGB">
<feFlood flood-opacity="0" result="BackgroundImageFix"/>
<feBlend mode="normal" in="SourceGraphic" in2="BackgroundImageFix" result="shape"/>
<feGaussianBlur stdDeviation="1" result="effect1_foregroundBlur_63_1080"/>
</filter>
<filter id="filter19_f_63_1080" x="12" y="88" width="53" height="5" filterUnits="userSpaceOnUse" color-interpolation-filters="sRGB">
<feFlood flood-opacity="0" result="BackgroundImageFix"/>
<feBlend mode="normal" in="SourceGraphic" in2="BackgroundImageFix" result="shape"/>
<feGaussianBlur stdDeviation="1" result="effect1_foregroundBlur_63_1080"/>
</filter>
<filter id="filter20_f_63_1080" x="12" y="109" width="53" height="5" filterUnits="userSpaceOnUse" color-interpolation-filters="sRGB">
<feFlood flood-opacity="0" result="BackgroundImageFix"/>
<feBlend mode="normal" in="SourceGraphic" in2="BackgroundImageFix" result="shape"/>
<feGaussianBlur stdDeviation="1" result="effect1_foregroundBlur_63_1080"/>
</filter>
<filter id="filter21_f_63_1080" x="12" y="91" width="53" height="5" filterUnits="userSpaceOnUse" color-interpolation-filters="sRGB">
<feFlood flood-opacity="0" result="BackgroundImageFix"/>
<feBlend mode="normal" in="SourceGraphic" in2="BackgroundImageFix" result="shape"/>
<feGaussianBlur stdDeviation="1" result="effect1_foregroundBlur_63_1080"/>
</filter>
<filter id="filter22_f_63_1080" x="12" y="112" width="53" height="5" filterUnits="userSpaceOnUse" color-interpolation-filters="sRGB">
<feFlood flood-opacity="0" result="BackgroundImageFix"/>
<feBlend mode="normal" in="SourceGraphic" in2="BackgroundImageFix" result="shape"/>
<feGaussianBlur stdDeviation="1" result="effect1_foregroundBlur_63_1080"/>
</filter>
<filter id="filter23_f_63_1080" x="12" y="94" width="53" height="5" filterUnits="userSpaceOnUse" color-interpolation-filters="sRGB">
<feFlood flood-opacity="0" result="BackgroundImageFix"/>
<feBlend mode="normal" in="SourceGraphic" in2="BackgroundImageFix" result="shape"/>
<feGaussianBlur stdDeviation="1" result="effect1_foregroundBlur_63_1080"/>
</filter>
<filter id="filter24_f_63_1080" x="12" y="115" width="53" height="5" filterUnits="userSpaceOnUse" color-interpolation-filters="sRGB">
<feFlood flood-opacity="0" result="BackgroundImageFix"/>
<feBlend mode="normal" in="SourceGraphic" in2="BackgroundImageFix" result="shape"/>
<feGaussianBlur stdDeviation="1" result="effect1_foregroundBlur_63_1080"/>
</filter>
<filter id="filter25_f_63_1080" x="12" y="97" width="53" height="5" filterUnits="userSpaceOnUse" color-interpolation-filters="sRGB">
<feFlood flood-opacity="0" result="BackgroundImageFix"/>
<feBlend mode="normal" in="SourceGraphic" in2="BackgroundImageFix" result="shape"/>
<feGaussianBlur stdDeviation="1" result="effect1_foregroundBlur_63_1080"/>
</filter>
<filter id="filter26_f_63_1080" x="12" y="118" width="53" height="5" filterUnits="userSpaceOnUse" color-interpolation-filters="sRGB">
<feFlood flood-opacity="0" result="BackgroundImageFix"/>
<feBlend mode="normal" in="SourceGraphic" in2="BackgroundImageFix" result="shape"/>
<feGaussianBlur stdDeviation="1" result="effect1_foregroundBlur_63_1080"/>
</filter>
<filter id="filter27_f_63_1080" x="12" y="100" width="53" height="5" filterUnits="userSpaceOnUse" color-interpolation-filters="sRGB">
<feFlood flood-opacity="0" result="BackgroundImageFix"/>
<feBlend mode="normal" in="SourceGraphic" in2="BackgroundImageFix" result="shape"/>
<feGaussianBlur stdDeviation="1" result="effect1_foregroundBlur_63_1080"/>
</filter>
<filter id="filter28_f_63_1080" x="12" y="121" width="53" height="5" filterUnits="userSpaceOnUse" color-interpolation-filters="sRGB">
<feFlood flood-opacity="0" result="BackgroundImageFix"/>
<feBlend mode="normal" in="SourceGraphic" in2="BackgroundImageFix" result="shape"/>
<feGaussianBlur stdDeviation="1" result="effect1_foregroundBlur_63_1080"/>
</filter>
<filter id="filter29_f_63_1080" x="12" y="103" width="53" height="5" filterUnits="userSpaceOnUse" color-interpolation-filters="sRGB">
<feFlood flood-opacity="0" result="BackgroundImageFix"/>
<feBlend mode="normal" in="SourceGraphic" in2="BackgroundImageFix" result="shape"/>
<feGaussianBlur stdDeviation="1" result="effect1_foregroundBlur_63_1080"/>
</filter>
<filter id="filter30_f_63_1080" x="12" y="124" width="53" height="5" filterUnits="userSpaceOnUse" color-interpolation-filters="sRGB">
<feFlood flood-opacity="0" result="BackgroundImageFix"/>
<feBlend mode="normal" in="SourceGraphic" in2="BackgroundImageFix" result="shape"/>
<feGaussianBlur stdDeviation="1" result="effect1_foregroundBlur_63_1080"/>
</filter>
<filter id="filter31_f_63_1080" x="12" y="106" width="53" height="5" filterUnits="userSpaceOnUse" color-interpolation-filters="sRGB">
<feFlood flood-opacity="0" result="BackgroundImageFix"/>
<feBlend mode="normal" in="SourceGraphic" in2="BackgroundImageFix" result="shape"/>
<feGaussianBlur stdDeviation="1" result="effect1_foregroundBlur_63_1080"/>
</filter>
<filter id="filter32_f_63_1080" x="12" y="127" width="53" height="5" filterUnits="userSpaceOnUse" color-interpolation-filters="sRGB">
<feFlood flood-opacity="0" result="BackgroundImageFix"/>
<feBlend mode="normal" in="SourceGraphic" in2="BackgroundImageFix" result="shape"/>
<feGaussianBlur stdDeviation="1" result="effect1_foregroundBlur_63_1080"/>
</filter>
</defs>
</svg>
