<svg width="11" height="18" viewBox="0 0 11 18" fill="none" xmlns="http://www.w3.org/2000/svg">
<g opacity="0.5">
<path fill-rule="evenodd" clip-rule="evenodd" d="M0 1.76471C0 0.790086 0.735055 0 1.64179 0H9.35821C10.2649 0 11 0.790086 11 1.76471V16.2353C11 17.2099 10.2649 18 9.35821 18H1.64179C0.735055 18 0 17.2099 0 16.2353V1.76471ZM1.64179 0.882353C1.18842 0.882353 0.820896 1.2774 0.820896 1.76471V16.2353C0.820896 16.7226 1.18842 17.1176 1.64179 17.1176H9.35821C9.81158 17.1176 10.1791 16.7226 10.1791 16.2353V1.76471C10.1791 1.2774 9.81158 0.882353 9.35821 0.882353H9.0709C8.78972 1.13186 8.65124 1.64678 8.5732 2.22721C8.51161 2.68523 8.16277 3.04412 7.73223 3.04412H3.26777C2.83723 3.04412 2.48839 2.68523 2.4268 2.22721C2.34876 1.64678 2.21028 1.13186 1.9291 0.882353H1.64179ZM3.0246 1.12619C3.13192 1.43995 3.19627 1.78126 3.23926 2.101C3.24307 2.12937 3.25516 2.14863 3.26452 2.15787C3.26653 2.15986 3.26909 2.16176 3.26909 2.16176H7.73091C7.73091 2.16176 7.73347 2.15986 7.73548 2.15787C7.74484 2.14863 7.75693 2.12937 7.76074 2.101C7.80373 1.78126 7.86808 1.43995 7.97541 1.12619C8.00238 1.04733 8.03373 0.965262 8.0705 0.882353H2.9295C2.96627 0.965262 2.99762 1.04733 3.0246 1.12619Z" fill="#404D63"/>
<path d="M4.02239 1.54412C4.02239 1.37356 4.15102 1.23529 4.3097 1.23529H5.62313C5.78181 1.23529 5.91045 1.37356 5.91045 1.54412C5.91045 1.71468 5.78181 1.85294 5.62313 1.85294H4.3097C4.15102 1.85294 4.02239 1.71468 4.02239 1.54412Z" fill="#404D63"/>
<path d="M6.23881 1.54412C6.23881 1.37356 6.36744 1.23529 6.52612 1.23529C6.6848 1.23529 6.81343 1.37356 6.81343 1.54412C6.81343 1.71468 6.6848 1.85294 6.52612 1.85294C6.36744 1.85294 6.23881 1.71468 6.23881 1.54412Z" fill="#404D63"/>
</g>
</svg>
