<svg width="16" height="14" viewBox="0 0 16 14" fill="none" xmlns="http://www.w3.org/2000/svg">
<path opacity="0.5" fill-rule="evenodd" clip-rule="evenodd" d="M8 0.83168C6.19455 0.83168 4.75078 2.19922 4.75078 3.86293C4.75078 5.52665 6.19455 6.89419 8 6.89419C9.80545 6.89419 11.2492 5.52665 11.2492 3.86293C11.2492 2.19922 9.80545 0.83168 8 0.83168ZM3.88592 3.86293C3.88592 1.71909 5.73882 0 8 0C10.2612 0 12.1141 1.71909 12.1141 3.86293C12.1141 6.00677 10.2612 7.72587 8 7.72587C5.73882 7.72587 3.88592 6.00677 3.88592 3.86293ZM8 10.1698C4.86643 10.1698 2.16725 11.6538 0.801379 13.8011C0.676758 13.997 0.410576 14.0587 0.206845 13.9388C0.00311314 13.819 -0.0610185 13.563 0.0636026 13.3671C1.59875 10.9537 4.58928 9.33816 8 9.33816C11.4107 9.33816 14.4012 10.9537 15.9364 13.3671C16.061 13.563 15.9969 13.819 15.7932 13.9388C15.5894 14.0587 15.3232 13.997 15.1986 13.8011C13.8328 11.6538 11.1336 10.1698 8 10.1698Z" fill="#404D63"/>
</svg>
