<svg width="199" height="45" viewBox="0 0 199 45" fill="none" xmlns="http://www.w3.org/2000/svg">
<path d="M69.96 12.4H79.228C81.3747 12.4 83.2787 12.8013 84.94 13.604C86.6013 14.4067 87.8893 15.5453 88.804 17.02C89.7187 18.4947 90.176 20.2213 90.176 22.2C90.176 24.1787 89.7187 25.9053 88.804 27.38C87.8893 28.8547 86.6013 29.9933 84.94 30.796C83.2787 31.5987 81.3747 32 79.228 32H69.96V12.4ZM79.004 27.576C80.684 27.576 82.028 27.1 83.036 26.148C84.0627 25.196 84.576 23.88 84.576 22.2C84.576 20.52 84.0627 19.204 83.036 18.252C82.028 17.3 80.684 16.824 79.004 16.824H75.504V27.576H79.004ZM92.8408 16.824H98.1608V32H92.8408V16.824ZM95.5008 15.144C94.5301 15.144 93.7461 14.8733 93.1488 14.332C92.5515 13.7907 92.2528 13.1187 92.2528 12.316C92.2528 11.5133 92.5515 10.8413 93.1488 10.3C93.7461 9.75867 94.5301 9.488 95.5008 9.488C96.4715 9.488 97.2555 9.74933 97.8528 10.272C98.4501 10.776 98.7488 11.4293 98.7488 12.232C98.7488 13.072 98.4501 13.772 97.8528 14.332C97.2555 14.8733 96.4715 15.144 95.5008 15.144ZM117.746 11.224V32H112.678V30.488C111.689 31.664 110.205 32.252 108.226 32.252C106.845 32.252 105.585 31.9347 104.446 31.3C103.307 30.6467 102.402 29.7227 101.73 28.528C101.077 27.3333 100.75 25.952 100.75 24.384C100.75 22.816 101.077 21.444 101.73 20.268C102.402 19.0733 103.307 18.1587 104.446 17.524C105.585 16.8893 106.845 16.572 108.226 16.572C110.037 16.572 111.437 17.0947 112.426 18.14V11.224H117.746ZM109.346 28.024C110.261 28.024 111.017 27.7067 111.614 27.072C112.211 26.4187 112.51 25.5227 112.51 24.384C112.51 23.264 112.211 22.3867 111.614 21.752C111.035 21.1173 110.279 20.8 109.346 20.8C108.413 20.8 107.647 21.1173 107.05 21.752C106.453 22.3867 106.154 23.264 106.154 24.384C106.154 25.5227 106.453 26.4187 107.05 27.072C107.647 27.7067 108.413 28.024 109.346 28.024ZM137.493 16.824V29.228C137.493 32.0467 136.728 34.156 135.197 35.556C133.666 36.9747 131.464 37.684 128.589 37.684C127.096 37.684 125.696 37.516 124.389 37.18C123.082 36.844 121.972 36.3493 121.057 35.696L122.989 31.972C123.605 32.476 124.38 32.868 125.313 33.148C126.265 33.4467 127.198 33.596 128.113 33.596C129.513 33.596 130.54 33.288 131.193 32.672C131.846 32.056 132.173 31.1413 132.173 29.928V29.424C131.146 30.6187 129.644 31.216 127.665 31.216C126.321 31.216 125.08 30.9173 123.941 30.32C122.802 29.704 121.897 28.8453 121.225 27.744C120.553 26.624 120.217 25.336 120.217 23.88C120.217 22.4427 120.553 21.1733 121.225 20.072C121.897 18.952 122.802 18.0933 123.941 17.496C125.08 16.88 126.321 16.572 127.665 16.572C129.83 16.572 131.417 17.272 132.425 18.672V16.824H137.493ZM128.925 26.988C129.877 26.988 130.661 26.6987 131.277 26.12C131.912 25.5413 132.229 24.7947 132.229 23.88C132.229 22.9653 131.921 22.228 131.305 21.668C130.689 21.0893 129.896 20.8 128.925 20.8C127.954 20.8 127.152 21.0893 126.517 21.668C125.901 22.228 125.593 22.9653 125.593 23.88C125.593 24.7947 125.91 25.5413 126.545 26.12C127.18 26.6987 127.973 26.988 128.925 26.988ZM140.911 16.824H146.231V32H140.911V16.824ZM143.571 15.144C142.6 15.144 141.816 14.8733 141.219 14.332C140.622 13.7907 140.323 13.1187 140.323 12.316C140.323 11.5133 140.622 10.8413 141.219 10.3C141.816 9.75867 142.6 9.488 143.571 9.488C144.542 9.488 145.326 9.74933 145.923 10.272C146.52 10.776 146.819 11.4293 146.819 12.232C146.819 13.072 146.52 13.772 145.923 14.332C145.326 14.8733 144.542 15.144 143.571 15.144ZM157.22 22.34L152.824 26.848V32H151.396V12.4H152.824V25L165.06 12.4H166.796L158.172 21.304L167.384 32H165.648L157.22 22.34ZM182.3 25.028H169.728C169.766 26.1667 170.055 27.184 170.596 28.08C171.138 28.9573 171.866 29.6387 172.78 30.124C173.714 30.6093 174.759 30.852 175.916 30.852C176.868 30.852 177.746 30.684 178.548 30.348C179.37 29.9933 180.051 29.48 180.592 28.808L181.404 29.732C180.77 30.4973 179.967 31.0853 178.996 31.496C178.044 31.9067 177.008 32.112 175.888 32.112C174.432 32.112 173.135 31.7947 171.996 31.16C170.858 30.5253 169.962 29.648 169.308 28.528C168.674 27.408 168.356 26.1293 168.356 24.692C168.356 23.2733 168.655 22.004 169.252 20.884C169.868 19.7453 170.708 18.8587 171.772 18.224C172.836 17.5893 174.031 17.272 175.356 17.272C176.682 17.272 177.867 17.5893 178.912 18.224C179.976 18.84 180.807 19.708 181.404 20.828C182.02 21.948 182.328 23.2173 182.328 24.636L182.3 25.028ZM175.356 18.504C174.33 18.504 173.406 18.7373 172.584 19.204C171.763 19.652 171.1 20.296 170.596 21.136C170.111 21.9573 169.831 22.8907 169.756 23.936H180.956C180.9 22.8907 180.62 21.9573 180.116 21.136C179.612 20.3147 178.95 19.6707 178.128 19.204C177.307 18.7373 176.383 18.504 175.356 18.504ZM198.118 17.384L190.614 33.988C190.054 35.276 189.401 36.1907 188.654 36.732C187.926 37.2733 187.058 37.544 186.05 37.544C185.378 37.544 184.743 37.432 184.146 37.208C183.567 36.984 183.073 36.6573 182.662 36.228L183.362 35.164C184.109 35.9293 185.014 36.312 186.078 36.312C186.787 36.312 187.394 36.116 187.898 35.724C188.402 35.332 188.869 34.66 189.298 33.708L190.082 31.944L183.502 17.384H184.986L190.838 30.46L196.69 17.384H198.118Z" fill="#EEEEEE"/>
<path d="M0 0H11.25V11.25H0V0Z" fill="#45A6FF"/>
<path d="M0 11.25H11.25V22.5H0V11.25Z" fill="#45A6FF"/>
<path d="M0 22.5H11.25V33.75H0V22.5Z" fill="#45A6FF"/>
<path d="M0 33.75H11.25V45H0V33.75Z" fill="#45A6FF"/>
<path d="M11.25 11.25H22.5V22.5H11.25V11.25Z" fill="#45A6FF"/>
<path d="M11.25 22.5H22.5V33.75H11.25V22.5Z" fill="#45A6FF"/>
<path d="M11.25 33.75H22.5V45H11.25V33.75Z" fill="#45A6FF"/>
<path d="M22.5 0H33.75V11.25H22.5V0Z" fill="#45A6FF"/>
<path d="M22.5 22.5H33.75V33.75H22.5V22.5Z" fill="#45A6FF"/>
<path d="M22.5 33.75H33.75V45H22.5V33.75Z" fill="#45A6FF"/>
<path d="M33.75 11.25H45V22.5H33.75V11.25Z" fill="#45A6FF"/>
<path d="M33.75 33.75H45V45H33.75V33.75Z" fill="#45A6FF"/>
</svg>
