<svg width="1920" height="5105" viewBox="0 0 1920 5105" fill="none" xmlns="http://www.w3.org/2000/svg">
<g filter="url(#filter0_f_61_522)">
<ellipse cx="667.712" cy="424.112" rx="842.4" ry="521.697" transform="rotate(30 667.712 424.112)" fill="url(#paint0_linear_61_522)"/>
</g>
<g opacity="0.7">
<path d="M1262.5 631H1157.25V736.25H1262.5V631Z" fill="white"/>
<path d="M1157.25 736.25H1052V841.5H1157.25V736.25Z" fill="white"/>
<path d="M1683.5 210H1578.25V315.25H1683.5V210Z" fill="white"/>
<path d="M1578.25 315.25H1473V420.5H1578.25V315.25Z" fill="white"/>
<path d="M2104.5 631H2209.75V525.75H2104.5V631Z" fill="white"/>
<path d="M2209.75 525.75H2315V420.5H2209.75V525.75Z" fill="white"/>
<path d="M1683.5 1052H1788.75V946.75H1683.5V1052Z" fill="white"/>
<path d="M1788.75 946.75H1894V841.5H1788.75V946.75Z" fill="white"/>
<path d="M1367.75 631H1473V525.75H1578.25V420.5H1683.5V315.25H1788.75V210H1894H1999.25H2104.5H2209.75H2315V315.25H2209.75V420.5H2104.5V525.75H1999.25V631H1894V736.25H1788.75V841.5H1683.5V946.75H1578.25V1052H1473H1367.75H1262.5H1157.25H1052V946.75H1157.25V841.5H1262.5V736.25H1367.75V631Z" fill="white"/>
</g>
<g opacity="0.7">
<path d="M-157.5 1517H-262.75V1622.25H-157.5V1517Z" fill="white"/>
<path d="M-262.75 1622.25H-368V1727.5H-262.75V1622.25Z" fill="white"/>
<path d="M263.5 1096H158.25V1201.25H263.5V1096Z" fill="white"/>
<path d="M158.25 1201.25H53V1306.5H158.25V1201.25Z" fill="white"/>
<path d="M684.5 1517H789.75V1411.75H684.5V1517Z" fill="white"/>
<path d="M789.75 1411.75H895V1306.5H789.75V1411.75Z" fill="white"/>
<path d="M263.5 1938H368.75V1832.75H263.5V1938Z" fill="white"/>
<path d="M368.75 1832.75H474V1727.5H368.75V1832.75Z" fill="white"/>
<path d="M-52.25 1517H53V1411.75H158.25V1306.5H263.5V1201.25H368.75V1096H474H579.25H684.5H789.75H895V1201.25H789.75V1306.5H684.5V1411.75H579.25V1517H474V1622.25H368.75V1727.5H263.5V1832.75H158.25V1938H53H-52.25H-157.5H-262.75H-368V1832.75H-262.75V1727.5H-157.5V1622.25H-52.25V1517Z" fill="white"/>
</g>
<g opacity="0.7">
<path d="M1047.5 2925H1152.75V3030.25H1047.5V2925Z" fill="white"/>
<path d="M1152.75 3030.25H1258V3135.5H1152.75V3030.25Z" fill="white"/>
<path d="M626.5 2504H731.75V2609.25H626.5V2504Z" fill="white"/>
<path d="M731.75 2609.25H837V2714.5H731.75V2609.25Z" fill="white"/>
<path d="M205.5 2925H100.25V2819.75H205.5V2925Z" fill="white"/>
<path d="M100.25 2819.75H-5V2714.5H100.25V2819.75Z" fill="white"/>
<path d="M626.5 3346H521.25V3240.75H626.5V3346Z" fill="white"/>
<path d="M521.25 3240.75H416V3135.5H521.25V3240.75Z" fill="white"/>
<path d="M942.25 2925H837V2819.75H731.75V2714.5H626.5V2609.25H521.25V2504H416H310.75H205.5H100.25H-5V2609.25H100.25V2714.5H205.5V2819.75H310.75V2925H416V3030.25H521.25V3135.5H626.5V3240.75H731.75V3346H837H942.25H1047.5H1152.75H1258V3240.75H1152.75V3135.5H1047.5V3030.25H942.25V2925Z" fill="white"/>
</g>
<g opacity="0.7">
<path d="M1047.5 4693H1152.75V4798.25H1047.5V4693Z" fill="white"/>
<path d="M1152.75 4798.25H1258V4903.5H1152.75V4798.25Z" fill="white"/>
<path d="M626.5 4272H731.75V4377.25H626.5V4272Z" fill="white"/>
<path d="M731.75 4377.25H837V4482.5H731.75V4377.25Z" fill="white"/>
<path d="M205.5 4693H100.25V4587.75H205.5V4693Z" fill="white"/>
<path d="M100.25 4587.75H-5V4482.5H100.25V4587.75Z" fill="white"/>
<path d="M626.5 5114H521.25V5008.75H626.5V5114Z" fill="white"/>
<path d="M521.25 5008.75H416V4903.5H521.25V5008.75Z" fill="white"/>
<path d="M942.25 4693H837V4587.75H731.75V4482.5H626.5V4377.25H521.25V4272H416H310.75H205.5H100.25H-5V4377.25H100.25V4482.5H205.5V4587.75H310.75V4693H416V4798.25H521.25V4903.5H626.5V5008.75H731.75V5114H837H942.25H1047.5H1152.75H1258V5008.75H1152.75V4903.5H1047.5V4798.25H942.25V4693Z" fill="white"/>
</g>
<g opacity="0.7">
<path d="M1862.5 3874H1967.75V3979.25H1862.5V3874Z" fill="white"/>
<path d="M1967.75 3979.25H2073V4084.5H1967.75V3979.25Z" fill="white"/>
<path d="M1441.5 3453H1546.75V3558.25H1441.5V3453Z" fill="white"/>
<path d="M1546.75 3558.25H1652V3663.5H1546.75V3558.25Z" fill="white"/>
<path d="M1020.5 3874H915.25V3768.75H1020.5V3874Z" fill="white"/>
<path d="M915.25 3768.75H810V3663.5H915.25V3768.75Z" fill="white"/>
<path d="M1441.5 4295H1336.25V4189.75H1441.5V4295Z" fill="white"/>
<path d="M1336.25 4189.75H1231V4084.5H1336.25V4189.75Z" fill="white"/>
<path d="M1757.25 3874H1652V3768.75H1546.75V3663.5H1441.5V3558.25H1336.25V3453H1231H1125.75H1020.5H915.25H810V3558.25H915.25V3663.5H1020.5V3768.75H1125.75V3874H1231V3979.25H1336.25V4084.5H1441.5V4189.75H1546.75V4295H1652H1757.25H1862.5H1967.75H2073V4189.75H1967.75V4084.5H1862.5V3979.25H1757.25V3874Z" fill="white"/>
</g>
<defs>
<filter id="filter0_f_61_522" x="-357.27" y="-443.576" width="2049.96" height="1735.38" filterUnits="userSpaceOnUse" color-interpolation-filters="sRGB">
<feFlood flood-opacity="0" result="BackgroundImageFix"/>
<feBlend mode="normal" in="SourceGraphic" in2="BackgroundImageFix" result="shape"/>
<feGaussianBlur stdDeviation="125" result="effect1_foregroundBlur_61_522"/>
</filter>
<linearGradient id="paint0_linear_61_522" x1="-30.2948" y1="471.248" x2="1589.72" y2="440.038" gradientUnits="userSpaceOnUse">
<stop stop-color="white"/>
<stop offset="1" stop-color="white" stop-opacity="0"/>
</linearGradient>
</defs>
</svg>
