<svg width="1920" height="988" viewBox="0 0 1920 988" fill="none" xmlns="http://www.w3.org/2000/svg">
<mask id="mask0_52_309" style="mask-type:alpha" maskUnits="userSpaceOnUse" x="0" y="0" width="1920" height="988">
<path d="M1709.5 567H1604.25V672.25H1499V567H1393.75V672.25H1288.5V777.5H1393.75V882.75H1288.5V988H0V0H1920V146H1814.75V251.25H1709.5V356.5H1814.75V461.75H1709.5V567Z" fill="#454C5C"/>
<path d="M1920 251.25V356.5H1814.75V251.25H1920Z" fill="#454C5C"/>
</mask>
<g mask="url(#mask0_52_309)">
<path d="M0 0H1920V988H0V0Z" fill="#1D2434"/>
<path d="M244.27 880.42H240.994V883.642H239.482V880.42H236.206V878.998H239.482V875.758H240.994V878.998H244.27V880.42ZM255.345 873.4V874.624L250.251 886H248.343L253.329 874.966H247.569V877.216H245.841V873.4H255.345ZM259.911 889.492C259.227 888.388 258.699 887.122 258.327 885.694C257.955 884.254 257.769 882.712 257.769 881.068C257.769 879.424 257.955 877.882 258.327 876.442C258.699 874.99 259.227 873.724 259.911 872.644H261.549C260.829 873.904 260.301 875.224 259.965 876.604C259.629 877.984 259.461 879.472 259.461 881.068C259.461 882.664 259.629 884.152 259.965 885.532C260.301 886.912 260.829 888.232 261.549 889.492H259.911ZM268.135 886.144C267.139 886.144 266.251 885.892 265.471 885.388C264.703 884.872 264.097 884.128 263.653 883.156C263.209 882.184 262.987 881.032 262.987 879.7C262.987 878.368 263.209 877.216 263.653 876.244C264.097 875.272 264.703 874.534 265.471 874.03C266.251 873.514 267.139 873.256 268.135 873.256C269.119 873.256 269.995 873.514 270.763 874.03C271.543 874.534 272.155 875.272 272.599 876.244C273.043 877.216 273.265 878.368 273.265 879.7C273.265 881.032 273.043 882.184 272.599 883.156C272.155 884.128 271.543 884.872 270.763 885.388C269.995 885.892 269.119 886.144 268.135 886.144ZM268.135 884.542C269.143 884.542 269.947 884.128 270.547 883.3C271.159 882.472 271.465 881.272 271.465 879.7C271.465 878.128 271.159 876.928 270.547 876.1C269.947 875.272 269.143 874.858 268.135 874.858C267.115 874.858 266.299 875.272 265.687 876.1C265.087 876.928 264.787 878.128 264.787 879.7C264.787 881.272 265.087 882.472 265.687 883.3C266.299 884.128 267.115 884.542 268.135 884.542ZM280.429 878.35C281.257 878.35 281.995 878.506 282.643 878.818C283.303 879.13 283.819 879.58 284.191 880.168C284.563 880.744 284.749 881.41 284.749 882.166C284.749 882.958 284.551 883.654 284.155 884.254C283.771 884.854 283.237 885.322 282.553 885.658C281.881 885.982 281.125 886.144 280.285 886.144C278.593 886.144 277.285 885.598 276.361 884.506C275.449 883.414 274.993 881.866 274.993 879.862C274.993 878.458 275.239 877.264 275.731 876.28C276.235 875.284 276.931 874.534 277.819 874.03C278.719 873.514 279.763 873.256 280.951 873.256C281.563 873.256 282.139 873.322 282.679 873.454C283.219 873.574 283.687 873.754 284.083 873.994L283.399 875.398C282.799 875.002 281.995 874.804 280.987 874.804C279.679 874.804 278.653 875.212 277.909 876.028C277.165 876.832 276.793 878.008 276.793 879.556C276.793 879.748 276.799 879.898 276.811 880.006C277.171 879.466 277.663 879.058 278.287 878.782C278.923 878.494 279.637 878.35 280.429 878.35ZM280.213 884.686C281.041 884.686 281.713 884.464 282.229 884.02C282.745 883.576 283.003 882.982 283.003 882.238C283.003 881.494 282.739 880.906 282.211 880.474C281.695 880.03 280.999 879.808 280.123 879.808C279.559 879.808 279.055 879.916 278.611 880.132C278.179 880.348 277.837 880.642 277.585 881.014C277.345 881.386 277.225 881.8 277.225 882.256C277.225 882.7 277.339 883.108 277.567 883.48C277.807 883.84 278.149 884.134 278.593 884.362C279.049 884.578 279.589 884.686 280.213 884.686ZM291.538 878.35C292.366 878.35 293.104 878.506 293.752 878.818C294.412 879.13 294.928 879.58 295.3 880.168C295.672 880.744 295.858 881.41 295.858 882.166C295.858 882.958 295.66 883.654 295.264 884.254C294.88 884.854 294.346 885.322 293.662 885.658C292.99 885.982 292.234 886.144 291.394 886.144C289.702 886.144 288.394 885.598 287.47 884.506C286.558 883.414 286.102 881.866 286.102 879.862C286.102 878.458 286.348 877.264 286.84 876.28C287.344 875.284 288.04 874.534 288.928 874.03C289.828 873.514 290.872 873.256 292.06 873.256C292.672 873.256 293.248 873.322 293.788 873.454C294.328 873.574 294.796 873.754 295.192 873.994L294.508 875.398C293.908 875.002 293.104 874.804 292.096 874.804C290.788 874.804 289.762 875.212 289.018 876.028C288.274 876.832 287.902 878.008 287.902 879.556C287.902 879.748 287.908 879.898 287.92 880.006C288.28 879.466 288.772 879.058 289.396 878.782C290.032 878.494 290.746 878.35 291.538 878.35ZM291.322 884.686C292.15 884.686 292.822 884.464 293.338 884.02C293.854 883.576 294.112 882.982 294.112 882.238C294.112 881.494 293.848 880.906 293.32 880.474C292.804 880.03 292.108 879.808 291.232 879.808C290.668 879.808 290.164 879.916 289.72 880.132C289.288 880.348 288.946 880.642 288.694 881.014C288.454 881.386 288.334 881.8 288.334 882.256C288.334 882.7 288.448 883.108 288.676 883.48C288.916 883.84 289.258 884.134 289.702 884.362C290.158 884.578 290.698 884.686 291.322 884.686ZM296.924 889.492C297.644 888.232 298.172 886.912 298.508 885.532C298.856 884.152 299.03 882.664 299.03 881.068C299.03 879.472 298.856 877.984 298.508 876.604C298.172 875.224 297.644 873.904 296.924 872.644H298.562C299.258 873.724 299.792 874.984 300.164 876.424C300.536 877.864 300.722 879.412 300.722 881.068C300.722 882.712 300.536 884.254 300.164 885.694C299.792 887.134 299.258 888.4 298.562 889.492H296.924ZM312.952 878.692C314.188 878.812 315.13 879.196 315.778 879.844C316.426 880.48 316.75 881.296 316.75 882.292C316.75 883.012 316.57 883.666 316.21 884.254C315.85 884.83 315.31 885.292 314.59 885.64C313.882 885.976 313.012 886.144 311.98 886.144C311.08 886.144 310.216 886.012 309.388 885.748C308.56 885.472 307.882 885.094 307.354 884.614L308.182 883.192C308.614 883.6 309.166 883.93 309.838 884.182C310.51 884.422 311.224 884.542 311.98 884.542C312.916 884.542 313.642 884.344 314.158 883.948C314.686 883.552 314.95 883.006 314.95 882.31C314.95 881.614 314.692 881.074 314.176 880.69C313.66 880.306 312.88 880.114 311.836 880.114H310.828V878.854L313.996 874.966H307.93V873.4H316.246V874.624L312.952 878.692ZM323.864 878.35C324.692 878.35 325.43 878.506 326.078 878.818C326.738 879.13 327.254 879.58 327.626 880.168C327.998 880.744 328.184 881.41 328.184 882.166C328.184 882.958 327.986 883.654 327.59 884.254C327.206 884.854 326.672 885.322 325.988 885.658C325.316 885.982 324.56 886.144 323.72 886.144C322.028 886.144 320.72 885.598 319.796 884.506C318.884 883.414 318.428 881.866 318.428 879.862C318.428 878.458 318.674 877.264 319.166 876.28C319.67 875.284 320.366 874.534 321.254 874.03C322.154 873.514 323.198 873.256 324.386 873.256C324.998 873.256 325.574 873.322 326.114 873.454C326.654 873.574 327.122 873.754 327.518 873.994L326.834 875.398C326.234 875.002 325.43 874.804 324.422 874.804C323.114 874.804 322.088 875.212 321.344 876.028C320.6 876.832 320.228 878.008 320.228 879.556C320.228 879.748 320.234 879.898 320.246 880.006C320.606 879.466 321.098 879.058 321.722 878.782C322.358 878.494 323.072 878.35 323.864 878.35ZM323.648 884.686C324.476 884.686 325.148 884.464 325.664 884.02C326.18 883.576 326.438 882.982 326.438 882.238C326.438 881.494 326.174 880.906 325.646 880.474C325.13 880.03 324.434 879.808 323.558 879.808C322.994 879.808 322.49 879.916 322.046 880.132C321.614 880.348 321.272 880.642 321.02 881.014C320.78 881.386 320.66 881.8 320.66 882.256C320.66 882.7 320.774 883.108 321.002 883.48C321.242 883.84 321.584 884.134 322.028 884.362C322.484 884.578 323.024 884.686 323.648 884.686ZM340.5 882.904H338.106V886H336.36V882.904H329.358V881.644L335.802 873.4H337.746L331.572 881.356H336.414V878.62H338.106V881.356H340.5V882.904ZM350.319 873.4V886H348.537V874.966H345.693V873.4H350.319ZM357.161 873.256C358.853 873.256 360.155 873.802 361.067 874.894C361.991 875.986 362.453 877.534 362.453 879.538C362.453 880.942 362.201 882.142 361.697 883.138C361.205 884.122 360.509 884.872 359.609 885.388C358.721 885.892 357.683 886.144 356.495 886.144C355.883 886.144 355.307 886.084 354.767 885.964C354.227 885.832 353.759 885.646 353.363 885.406L354.047 884.002C354.659 884.398 355.469 884.596 356.477 884.596C357.785 884.596 358.805 884.194 359.537 883.39C360.281 882.574 360.653 881.392 360.653 879.844V879.394C360.293 879.934 359.795 880.348 359.159 880.636C358.523 880.912 357.809 881.05 357.017 881.05C356.189 881.05 355.445 880.894 354.785 880.582C354.137 880.27 353.627 879.826 353.255 879.25C352.895 878.662 352.715 877.99 352.715 877.234C352.715 876.442 352.907 875.746 353.291 875.146C353.687 874.546 354.221 874.084 354.893 873.76C355.565 873.424 356.321 873.256 357.161 873.256ZM357.323 879.592C357.887 879.592 358.391 879.484 358.835 879.268C359.279 879.052 359.621 878.758 359.861 878.386C360.113 878.014 360.239 877.6 360.239 877.144C360.239 876.7 360.119 876.298 359.879 875.938C359.651 875.566 359.309 875.272 358.853 875.056C358.409 874.828 357.869 874.714 357.233 874.714C356.405 874.714 355.733 874.936 355.217 875.38C354.713 875.824 354.461 876.418 354.461 877.162C354.461 877.906 354.719 878.5 355.235 878.944C355.751 879.376 356.447 879.592 357.323 879.592ZM372.924 873.4V886H371.142V874.966H368.298V873.4H372.924ZM379.766 873.256C381.458 873.256 382.76 873.802 383.672 874.894C384.596 875.986 385.058 877.534 385.058 879.538C385.058 880.942 384.806 882.142 384.302 883.138C383.81 884.122 383.114 884.872 382.214 885.388C381.326 885.892 380.288 886.144 379.1 886.144C378.488 886.144 377.912 886.084 377.372 885.964C376.832 885.832 376.364 885.646 375.968 885.406L376.652 884.002C377.264 884.398 378.074 884.596 379.082 884.596C380.39 884.596 381.41 884.194 382.142 883.39C382.886 882.574 383.258 881.392 383.258 879.844V879.394C382.898 879.934 382.4 880.348 381.764 880.636C381.128 880.912 380.414 881.05 379.622 881.05C378.794 881.05 378.05 880.894 377.39 880.582C376.742 880.27 376.232 879.826 375.86 879.25C375.5 878.662 375.32 877.99 375.32 877.234C375.32 876.442 375.512 875.746 375.896 875.146C376.292 874.546 376.826 874.084 377.498 873.76C378.17 873.424 378.926 873.256 379.766 873.256ZM379.928 879.592C380.492 879.592 380.996 879.484 381.44 879.268C381.884 879.052 382.226 878.758 382.466 878.386C382.718 878.014 382.844 877.6 382.844 877.144C382.844 876.7 382.724 876.298 382.484 875.938C382.256 875.566 381.914 875.272 381.458 875.056C381.014 874.828 380.474 874.714 379.838 874.714C379.01 874.714 378.338 874.936 377.822 875.38C377.318 875.824 377.066 876.418 377.066 877.162C377.066 877.906 377.324 878.5 377.84 878.944C378.356 879.376 379.052 879.592 379.928 879.592ZM396.196 870.844H397.762L391.822 887.8H390.256L396.196 870.844ZM403.812 873.4H405.612V886H403.812V873.4ZM420.22 873.4V886H418.744L411.184 876.604V886H409.384V873.4H410.86L418.42 882.796V873.4H420.22ZM425.792 874.966V879.358H432.11V880.906H425.792V886H423.992V873.4H432.884V874.966H425.792ZM440.965 886.144C439.693 886.144 438.547 885.868 437.527 885.316C436.507 884.752 435.703 883.978 435.115 882.994C434.539 882.01 434.251 880.912 434.251 879.7C434.251 878.488 434.539 877.39 435.115 876.406C435.703 875.422 436.507 874.654 437.527 874.102C438.547 873.538 439.693 873.256 440.965 873.256C442.225 873.256 443.365 873.538 444.385 874.102C445.405 874.654 446.203 875.422 446.779 876.406C447.355 877.378 447.643 878.476 447.643 879.7C447.643 880.924 447.355 882.028 446.779 883.012C446.203 883.984 445.405 884.752 444.385 885.316C443.365 885.868 442.225 886.144 440.965 886.144ZM440.965 884.542C441.889 884.542 442.717 884.332 443.449 883.912C444.193 883.492 444.775 882.916 445.195 882.184C445.627 881.44 445.843 880.612 445.843 879.7C445.843 878.788 445.627 877.966 445.195 877.234C444.775 876.49 444.193 875.908 443.449 875.488C442.717 875.068 441.889 874.858 440.965 874.858C440.041 874.858 439.201 875.068 438.445 875.488C437.701 875.908 437.113 876.49 436.681 877.234C436.261 877.966 436.051 878.788 436.051 879.7C436.051 880.612 436.261 881.44 436.681 882.184C437.113 882.916 437.701 883.492 438.445 883.912C439.201 884.332 440.041 884.542 440.965 884.542ZM457.864 873.274C459.484 873.274 460.93 873.61 462.202 874.282C463.474 874.942 464.464 875.872 465.172 877.072C465.892 878.272 466.252 879.64 466.252 881.176C466.252 882.712 465.97 883.918 465.406 884.794C464.842 885.67 464.056 886.108 463.048 886.108C462.472 886.108 461.992 885.964 461.608 885.676C461.236 885.376 460.996 884.95 460.888 884.398C460.528 884.95 460.054 885.376 459.466 885.676C458.89 885.964 458.224 886.108 457.468 886.108C456.628 886.108 455.872 885.91 455.2 885.514C454.528 885.118 454 884.572 453.616 883.876C453.244 883.168 453.058 882.37 453.058 881.482C453.058 880.606 453.244 879.82 453.616 879.124C454 878.416 454.528 877.87 455.2 877.486C455.872 877.09 456.628 876.892 457.468 876.892C458.164 876.892 458.794 877.024 459.358 877.288C459.922 877.54 460.39 877.918 460.762 878.422V876.964H462.328V883.444C462.328 883.888 462.424 884.218 462.616 884.434C462.808 884.638 463.054 884.74 463.354 884.74C463.882 884.74 464.29 884.434 464.578 883.822C464.878 883.198 465.028 882.322 465.028 881.194C465.028 879.862 464.728 878.692 464.128 877.684C463.528 876.664 462.682 875.872 461.59 875.308C460.51 874.744 459.268 874.462 457.864 874.462C456.448 874.462 455.194 874.756 454.102 875.344C453.022 875.932 452.182 876.754 451.582 877.81C450.982 878.866 450.682 880.072 450.682 881.428C450.682 882.796 450.976 884.008 451.564 885.064C452.164 886.12 452.998 886.942 454.066 887.53C455.146 888.13 456.388 888.43 457.792 888.43C458.38 888.43 458.98 888.364 459.592 888.232C460.204 888.1 460.762 887.902 461.266 887.638L461.662 888.79C461.134 889.066 460.522 889.276 459.826 889.42C459.13 889.564 458.452 889.636 457.792 889.636C456.148 889.636 454.684 889.282 453.4 888.574C452.128 887.878 451.138 886.906 450.43 885.658C449.722 884.41 449.368 883 449.368 881.428C449.368 879.856 449.722 878.452 450.43 877.216C451.15 875.98 452.152 875.014 453.436 874.318C454.732 873.622 456.208 873.274 457.864 873.274ZM457.72 884.704C458.308 884.704 458.83 884.572 459.286 884.308C459.754 884.044 460.12 883.672 460.384 883.192C460.66 882.7 460.798 882.13 460.798 881.482C460.798 880.834 460.66 880.27 460.384 879.79C460.12 879.298 459.754 878.926 459.286 878.674C458.83 878.41 458.308 878.278 457.72 878.278C456.808 878.278 456.07 878.572 455.506 879.16C454.942 879.736 454.66 880.51 454.66 881.482C454.66 882.454 454.942 883.234 455.506 883.822C456.082 884.41 456.82 884.704 457.72 884.704ZM469.009 873.4H474.319C475.651 873.4 476.833 873.664 477.865 874.192C478.897 874.72 479.695 875.464 480.259 876.424C480.835 877.372 481.123 878.464 481.123 879.7C481.123 880.936 480.835 882.034 480.259 882.994C479.695 883.942 478.897 884.68 477.865 885.208C476.833 885.736 475.651 886 474.319 886H469.009V873.4ZM474.211 884.434C475.231 884.434 476.125 884.236 476.893 883.84C477.673 883.444 478.273 882.892 478.693 882.184C479.113 881.464 479.323 880.636 479.323 879.7C479.323 878.764 479.113 877.942 478.693 877.234C478.273 876.514 477.673 875.956 476.893 875.56C476.125 875.164 475.231 874.966 474.211 874.966H470.809V884.434H474.211ZM483.88 873.4H485.68V886H483.88V873.4ZM489.453 873.4H494.763C496.095 873.4 497.277 873.664 498.309 874.192C499.341 874.72 500.139 875.464 500.703 876.424C501.279 877.372 501.567 878.464 501.567 879.7C501.567 880.936 501.279 882.034 500.703 882.994C500.139 883.942 499.341 884.68 498.309 885.208C497.277 885.736 496.095 886 494.763 886H489.453V873.4ZM494.655 884.434C495.675 884.434 496.569 884.236 497.337 883.84C498.117 883.444 498.717 882.892 499.137 882.184C499.557 881.464 499.767 880.636 499.767 879.7C499.767 878.764 499.557 877.942 499.137 877.234C498.717 876.514 498.117 875.956 497.337 875.56C496.569 875.164 495.675 874.966 494.655 874.966H491.253V884.434H494.655ZM513.054 879.628H514.782V884.542C514.158 885.058 513.432 885.454 512.604 885.73C511.776 886.006 510.912 886.144 510.012 886.144C508.74 886.144 507.594 885.868 506.574 885.316C505.554 884.752 504.75 883.984 504.162 883.012C503.586 882.028 503.298 880.924 503.298 879.7C503.298 878.476 503.586 877.372 504.162 876.388C504.75 875.404 505.554 874.636 506.574 874.084C507.606 873.532 508.764 873.256 510.048 873.256C511.056 873.256 511.968 873.424 512.784 873.76C513.612 874.084 514.314 874.564 514.89 875.2L513.774 876.316C512.766 875.344 511.548 874.858 510.12 874.858C509.16 874.858 508.296 875.068 507.528 875.488C506.772 875.896 506.178 876.472 505.746 877.216C505.314 877.948 505.098 878.776 505.098 879.7C505.098 880.612 505.314 881.44 505.746 882.184C506.178 882.916 506.772 883.492 507.528 883.912C508.296 884.332 509.154 884.542 510.102 884.542C511.23 884.542 512.214 884.272 513.054 883.732V879.628ZM518.228 873.4H520.028V886H518.228V873.4ZM527.904 880.402L525.6 882.742V886H523.8V873.4H525.6V880.438L532.44 873.4H534.492L529.11 879.07L534.834 886H532.728L527.904 880.402ZM545.882 884.434V886H536.738V873.4H545.63V874.966H538.538V878.836H544.856V880.366H538.538V884.434H545.882ZM553.48 881.644V886H551.698V881.608L546.694 873.4H548.62L552.652 880.042L556.702 873.4H558.484L553.48 881.644Z" fill="#EEEEEE"/>
</g>
</svg>
